#!OML:ASF F:\VICON\USERDATA\INSTALL\rory3\rory3.ASF
:FULLY-SPECIFIED
:DEGREES
388
root -4.30203 14.377 21.9056 569.868 -15.7385 184.814
lowerback -3.26206 -0.325046 -4.91397
upperback -12.1195 -2.46863 -3.17924
thorax -11.1656 -1.60523 -0.401143
lowerneck -10.6192 5.06185 -1.87706
upperneck 0.111164 6.73338 3.16672
head 1.66776 3.39115 1.63057
rclavicle -1.8487e-014 7.95139e-014
rhumerus 124.64 -42.0817 277.504
rradius 18.3513
rwrist 41.4242
rhand -11.2556 9.18025
rfingers 7.12502
rthumb 14.7743 -20.2732
lclavicle -1.8487e-014 7.95139e-014
lhumerus 8.69916 43.3505 -5.46417
lradius 24.3751
lwrist -27.3082
lhand -6.57373 28.5547
lfingers 7.12502
lthumb 19.2807 57.6189
rfemur 7.83537 7.33045 33.4561
rtibia -3.49861e-014
rfoot -50.4958 -43.1908
rtoes -2.92776
lfemur -98.0338 26.3832 -51.1817
ltibia 76.1244
lfoot -32.1977 22.1463
ltoes 9.66623
389
root -4.28356 14.4007 21.9188 569.63 -15.8714 185.119
lowerback -3.39827 -0.47726 -4.68335
upperback -11.8515 -2.56885 -3.05064
thorax -10.7603 -1.65185 -0.394765
lowerneck -10.6056 5.45263 -1.4213
upperneck -0.428138 7.19918 2.78122
head 1.50255 3.60457 1.43273
rclavicle 1.88845e-014 -9.54166e-014
rhumerus 124.786 -42.0354 277.35
rradius 18.4465
rwrist 41.5743
rhand -12.1769 9.63938
rfingers 7.12502
rthumb 13.8866 -19.877
lclavicle 1.88845e-014 -9.54166e-014
lhumerus 7.28233 42.5533 -5.29916
lradius 24.3487
lwrist -27.3388
lhand -6.50878 28.8561
lfingers 7.12502
lthumb 19.3432 57.914
rfemur 7.8832 7.34383 33.8288
rtibia -5.725e-014
rfoot -49.2098 -43.5976
rtoes -3.44082
lfemur -98.1437 26.9471 -51.337
ltibia 75.8695
lfoot -31.8376 21.762
ltoes 9.34763
390
root -4.27412 14.4327 21.9312 569.571 -15.9564 185.717
lowerback -3.80704 -0.523932 -4.09154
upperback -11.7488 -2.54193 -2.8664
thorax -10.3948 -1.68141 -0.541669
lowerneck -10.8067 5.78738 -1.07309
upperneck -0.405898 7.60825 2.46321
head 1.55893 3.80028 1.29899
rclavicle -3.47873e-014 -9.54166e-015
rhumerus 124.713 -41.9409 277.286
rradius 18.4958
rwrist 41.7103
rhand -12.8168 9.97084
rfingers 7.12502
rthumb 13.2698 -19.5867
lclavicle -3.47873e-014 -9.54166e-015
lhumerus 5.42244 40.6064 -5.52052
lradius 24.4503
lwrist -26.3794
lhand -6.42 29.4235
lfingers 7.12502
lthumb 19.4286 58.4729
rfemur 7.65524 7.61102 34.3317
rtibia -5.08889e-014
rfoot -47.2237 -44.3156
rtoes -4.91494
lfemur -98.601 27.4544 -51.4214
ltibia 75.5348
lfoot -31.2639 21.5595
ltoes 8.68888
391
root -4.27427 14.4731 21.9448 569.483 -16.1419 186.263
lowerback -4.11106 -0.549343 -3.36392
upperback -11.6457 -2.50206 -2.75522
thorax -10.1023 -1.71776 -0.840546
lowerneck -11.4505 6.0823 -0.81253
upperneck 0.198219 7.96802 2.37733
head 1.87847 3.98469 1.28933
rclavicle -5.76476e-015 3.97569e-014
rhumerus 123.784 -42.5968 278.191
rradius 18.5691
rwrist 40.7708
rhand -13.3684 10.358
rfingers 7.12502
rthumb 12.7381 -19.2335
lclavicle -5.76476e-015 3.97569e-014
lhumerus 4.32194 40.1323 -4.92435
lradius 24.0809
lwrist -26.8582
lhand -6.32585 29.4468
lfingers 7.12502
lthumb 19.5191 58.487
rfemur 7.49851 7.75362 34.7329
rtibia 2.54444e-014
rfoot -45.1105 -44.7545
rtoes -7.00975
lfemur -98.7385 27.7425 -51.277
ltibia 75.1278
lfoot -30.7606 21.51
ltoes 7.65679
392
root -4.27554 14.5093 21.9604 569.147 -16.6283 186.978
lowerback -4.25048 -0.597571 -2.47116
upperback -11.4716 -2.46807 -2.5828
thorax -9.82905 -1.75291 -1.16408
lowerneck -12.0545 6.3368 -0.395039
upperneck 0.959404 8.25731 2.19431
head 2.26172 4.13369 1.22649
rclavicle 4.57205e-015 4.77083e-014
rhumerus 123.022 -43.1797 278.853
rradius 18.5086
rwrist 40.0344
rhand -14.1441 10.6547
rfingers 7.12502
rthumb 11.9902 -18.9819
lclavicle 4.57205e-015 4.77083e-014
lhumerus 3.5912 40.199 -3.9483
lradius 23.5402
lwrist -27.9348
lhand -5.95034 29.2635
lfingers 7.12502
lthumb 19.8801 58.2667
rfemur 7.53694 7.65396 35.4676
rtibia 6.36111e-015
rfoot -43.3669 -44.947
rtoes -8.19119
lfemur -98.5659 27.9044 -50.5537
ltibia 74.7417
lfoot -30.5038 21.3651
ltoes 7.09154
